<mxfile host="app.diagrams.net" modified="2023-11-13T23:01:14.200Z" agent="Mozilla/5.0 (Windows NT 10.0; Win64; x64) AppleWebKit/537.36 (KHTML, like Gecko) Chrome/119.0.0.0 Safari/537.36" etag="zWjItRTCGKOJBQ1lnSBt" version="22.1.0" type="device">
  <diagram name="PÃ¡gina-1" id="DkVvcYBIbT2P-QnvVwDT">
    <mxGraphModel dx="1434" dy="759" grid="1" gridSize="10" guides="1" tooltips="1" connect="1" arrows="1" fold="1" page="1" pageScale="1" pageWidth="827" pageHeight="1169" math="0" shadow="0">
      <root>
        <mxCell id="0" />
        <mxCell id="1" parent="0" />
        <mxCell id="80fUx_5_ATNKXqXZNWFb-164" value="&lt;br&gt;" style="html=1;verticalAlign=bottom;endArrow=open;dashed=1;endSize=8;curved=0;rounded=0;exitX=0.5;exitY=1;exitDx=0;exitDy=0;entryX=0.322;entryY=1.004;entryDx=0;entryDy=0;entryPerimeter=0;" edge="1" parent="1" source="80fUx_5_ATNKXqXZNWFb-155">
          <mxGeometry relative="1" as="geometry">
            <mxPoint x="1200" y="680" as="sourcePoint" />
            <mxPoint x="111.51999999999998" y="310.31999999999994" as="targetPoint" />
            <Array as="points">
              <mxPoint x="1160" y="790" />
              <mxPoint x="110" y="790" />
            </Array>
          </mxGeometry>
        </mxCell>
        <mxCell id="80fUx_5_ATNKXqXZNWFb-299" value="Principal" style="swimlane;fontStyle=0;childLayout=stackLayout;horizontal=1;startSize=26;fillColor=none;horizontalStack=0;resizeParent=1;resizeParentMax=0;resizeLast=0;collapsible=1;marginBottom=0;whiteSpace=wrap;html=1;" vertex="1" parent="1">
          <mxGeometry x="90" y="150" width="140" height="52" as="geometry" />
        </mxCell>
        <mxCell id="80fUx_5_ATNKXqXZNWFb-300" value="+ main(String[]): void" style="text;strokeColor=none;fillColor=none;align=left;verticalAlign=top;spacingLeft=4;spacingRight=4;overflow=hidden;rotatable=0;points=[[0,0.5],[1,0.5]];portConstraint=eastwest;whiteSpace=wrap;html=1;" vertex="1" parent="80fUx_5_ATNKXqXZNWFb-299">
          <mxGeometry y="26" width="140" height="26" as="geometry" />
        </mxCell>
        <mxCell id="80fUx_5_ATNKXqXZNWFb-303" value="SingleObject" style="swimlane;fontStyle=0;childLayout=stackLayout;horizontal=1;startSize=26;fillColor=none;horizontalStack=0;resizeParent=1;resizeParentMax=0;resizeLast=0;collapsible=1;marginBottom=0;whiteSpace=wrap;html=1;" vertex="1" parent="1">
          <mxGeometry x="380" y="130" width="190" height="130" as="geometry" />
        </mxCell>
        <mxCell id="80fUx_5_ATNKXqXZNWFb-304" value="- instance: SingleObject" style="text;strokeColor=none;fillColor=none;align=left;verticalAlign=top;spacingLeft=4;spacingRight=4;overflow=hidden;rotatable=0;points=[[0,0.5],[1,0.5]];portConstraint=eastwest;whiteSpace=wrap;html=1;" vertex="1" parent="80fUx_5_ATNKXqXZNWFb-303">
          <mxGeometry y="26" width="190" height="26" as="geometry" />
        </mxCell>
        <mxCell id="80fUx_5_ATNKXqXZNWFb-305" value="- SingleObject()&lt;br&gt;+ getInstance(): SingleObeject&lt;br&gt;+ showMessage(): void" style="text;strokeColor=none;fillColor=none;align=left;verticalAlign=top;spacingLeft=4;spacingRight=4;overflow=hidden;rotatable=0;points=[[0,0.5],[1,0.5]];portConstraint=eastwest;whiteSpace=wrap;html=1;" vertex="1" parent="80fUx_5_ATNKXqXZNWFb-303">
          <mxGeometry y="52" width="190" height="78" as="geometry" />
        </mxCell>
        <mxCell id="80fUx_5_ATNKXqXZNWFb-309" style="edgeStyle=orthogonalEdgeStyle;rounded=0;orthogonalLoop=1;jettySize=auto;html=1;entryX=1;entryY=0.5;entryDx=0;entryDy=0;" edge="1" parent="80fUx_5_ATNKXqXZNWFb-303" source="80fUx_5_ATNKXqXZNWFb-303" target="80fUx_5_ATNKXqXZNWFb-305">
          <mxGeometry relative="1" as="geometry" />
        </mxCell>
        <mxCell id="80fUx_5_ATNKXqXZNWFb-307" value="&lt;br&gt;" style="html=1;verticalAlign=bottom;endArrow=open;dashed=1;endSize=8;curved=0;rounded=0;entryX=-0.021;entryY=0.077;entryDx=0;entryDy=0;entryPerimeter=0;exitX=1;exitY=0.5;exitDx=0;exitDy=0;" edge="1" parent="1" source="80fUx_5_ATNKXqXZNWFb-300" target="80fUx_5_ATNKXqXZNWFb-305">
          <mxGeometry relative="1" as="geometry">
            <mxPoint x="610" y="320" as="sourcePoint" />
            <mxPoint x="300" y="390" as="targetPoint" />
          </mxGeometry>
        </mxCell>
        <mxCell id="80fUx_5_ATNKXqXZNWFb-310" value="Retoma" style="text;html=1;align=center;verticalAlign=middle;resizable=0;points=[];autosize=1;strokeColor=none;fillColor=none;" vertex="1" parent="1">
          <mxGeometry x="500" y="260" width="70" height="30" as="geometry" />
        </mxCell>
      </root>
    </mxGraphModel>
  </diagram>
</mxfile>
